<svg xmlns="http://www.w3.org/2000/svg" viewBox="0 0 512 512">
  <path fill="#FF6D00" d="M336 64h-32V32c0-17.6-14.4-32-32-32H240c-17.6 0-32 14.4-32 32v32h-32c-35.3 0-64 28.7-64 64v320c0 35.3 28.7 64 64 64h224c35.3 0 64-28.7 64-64V128c0-35.3-28.7-64-64-64zm-96-32h32v32h-32V32zm160 416c0 17.6-14.4 32-32 32H176c-17.6 0-32-14.4-32-32V128c0-17.6 14.4-32 32-32h32v16c0 17.6 14.4 32 32 32h64c17.6 0 32-14.4 32-32v-16h32c17.6 0 32 14.4 32 32v320z"/>
  <path fill="#FF6D00" d="M362.3 226.3c-6.2-6.2-16.4-6.2-22.6 0L240 326.1l-67.7-67.7c-6.2-6.2-16.4-6.2-22.6 0s-6.2 16.4 0 22.6l79 79c3.1 3.1 7.2 4.7 11.3 4.7s8.2-1.6 11.3-4.7l111-111c6.2-6.2 6.2-16.4 0-22.7z"/>
</svg>
